<svg width="60" height="60" viewBox="0 0 60 60" fill="none" xmlns="http://www.w3.org/2000/svg">
<path fill-rule="evenodd" clip-rule="evenodd" d="M56.6038 30C56.6038 44.6929 44.6929 56.6038 30 56.6038C15.3071 56.6038 3.39623 44.6929 3.39623 30C3.39623 15.3071 15.3071 3.39623 30 3.39623C44.6929 3.39623 56.6038 15.3071 56.6038 30ZM60 30C60 46.5685 46.5685 60 30 60C13.4315 60 0 46.5685 0 30C0 13.4315 13.4315 0 30 0C46.5685 0 60 13.4315 60 30ZM28.4744 34.1307C29.196 32.7955 29.5568 31.1761 29.5568 29.2727C29.5568 27.3693 29.196 25.75 28.4744 24.4148C27.7585 23.0795 26.7812 22.0625 25.5426 21.3636C24.3097 20.6591 22.9233 20.3068 21.3835 20.3068C19.8324 20.3068 18.4403 20.6591 17.2074 21.3636C15.9744 22.0625 15 23.0795 14.2841 24.4148C13.5682 25.75 13.2102 27.3693 13.2102 29.2727C13.2102 31.1705 13.5682 32.7869 14.2841 34.1222C15 35.4574 15.9744 36.4773 17.2074 37.1818C18.4403 37.8864 19.8324 38.2386 21.3835 38.2386C22.9233 38.2386 24.3097 37.8892 25.5426 37.1903C26.7812 36.4858 27.7585 35.4659 28.4744 34.1307ZM25.2614 26.1534C25.6307 27 25.8153 28.0398 25.8153 29.2727C25.8153 30.5057 25.6307 31.5455 25.2614 32.392C24.8977 33.2386 24.3835 33.8807 23.7188 34.3182C23.054 34.7557 22.2756 34.9744 21.3835 34.9744C20.4915 34.9744 19.7131 34.7557 19.0483 34.3182C18.3835 33.8807 17.8665 33.2386 17.4972 32.392C17.1335 31.5455 16.9517 30.5057 16.9517 29.2727C16.9517 28.0398 17.1335 27 17.4972 26.1534C17.8665 25.3068 18.3835 24.6648 19.0483 24.2273C19.7131 23.7898 20.4915 23.571 21.3835 23.571C22.2756 23.571 23.054 23.7898 23.7188 24.2273C24.3835 24.6648 24.8977 25.3068 25.2614 26.1534ZM35.9808 20.5455H32.2905V38H35.9808V33.0398L37.7962 30.8239L42.5774 38H46.9922L40.4382 28.3608L46.9155 20.5455H42.4922L36.2109 28.2415H35.9808V20.5455Z" fill="white"/>
</svg>
