<svg width="48" height="48" viewBox="0 0 48 48" fill="none" xmlns="http://www.w3.org/2000/svg">
<path fill-rule="evenodd" clip-rule="evenodd" d="M24 45.283C35.7543 45.283 45.283 35.7543 45.283 24C45.283 12.2457 35.7543 2.71698 24 2.71698C12.2457 2.71698 2.71698 12.2457 2.71698 24C2.71698 35.7543 12.2457 45.283 24 45.283ZM24 48C37.2548 48 48 37.2548 48 24C48 10.7452 37.2548 0 24 0C10.7452 0 0 10.7452 0 24C0 37.2548 10.7452 48 24 48Z" fill="black"/>
<path d="M15.3333 30.6667C14.9556 30.6667 14.6387 30.5387 14.3827 30.2827C14.1276 30.0276 14 29.7111 14 29.3334V26.6667H11.3333C10.9556 26.6667 10.6391 26.5387 10.384 26.2827C10.128 26.0276 10 25.7111 10 25.3334C10 24.9556 10.128 24.6387 10.384 24.3827C10.6391 24.1276 10.9556 24 11.3333 24H14V21.3334C14 20.9556 14.1276 20.6387 14.3827 20.3827C14.6387 20.1276 14.9556 20 15.3333 20C15.7111 20 16.028 20.1276 16.284 20.3827C16.5391 20.6387 16.6667 20.9556 16.6667 21.3334V24H19.3333C19.7111 24 20.028 24.1276 20.284 24.3827C20.5391 24.6387 20.6667 24.9556 20.6667 25.3334C20.6667 25.7111 20.5391 26.0276 20.284 26.2827C20.028 26.5387 19.7111 26.6667 19.3333 26.6667H16.6667V29.3334C16.6667 29.7111 16.5391 30.0276 16.284 30.2827C16.028 30.5387 15.7111 30.6667 15.3333 30.6667ZM28.5 33.3334C28.0778 33.3334 27.7222 33.1889 27.4333 32.9C27.1444 32.6111 27 32.2556 27 31.8334V18.7334L25.0667 20.1334C24.7556 20.3778 24.4169 20.4609 24.0507 20.3827C23.6836 20.3054 23.3889 20.1 23.1667 19.7667C22.9444 19.4556 22.8724 19.1054 22.9507 18.716C23.028 18.3276 23.2222 18.0222 23.5333 17.8L26.8 15.4334C27.1111 15.2111 27.4836 15.0942 27.9173 15.0827C28.3502 15.072 28.7222 15.1556 29.0333 15.3334C29.3 15.4889 29.528 15.7334 29.7173 16.0667C29.9058 16.4 30 16.7222 30 17.0334V31.8334C30 32.2556 29.8556 32.6111 29.5667 32.9C29.2778 33.1889 28.9222 33.3334 28.5 33.3334Z" fill="black"/>
</svg>
