<svg width="48" height="48" viewBox="0 0 48 48" fill="none" xmlns="http://www.w3.org/2000/svg">
<path fill-rule="evenodd" clip-rule="evenodd" d="M24 45.283C35.7543 45.283 45.283 35.7543 45.283 24C45.283 12.2457 35.7543 2.71698 24 2.71698C12.2457 2.71698 2.71698 12.2457 2.71698 24C2.71698 35.7543 12.2457 45.283 24 45.283ZM24 48C37.2548 48 48 37.2548 48 24C48 10.7452 37.2548 0 24 0C10.7452 0 0 10.7452 0 24C0 37.2548 10.7452 48 24 48Z" fill="black"/>
<path d="M15.3333 30.6666C14.9556 30.6666 14.6387 30.5386 14.3827 30.2826C14.1276 30.0275 14 29.7111 14 29.3333V26.6666H11.3333C10.9556 26.6666 10.6391 26.5386 10.384 26.2826C10.128 26.0275 10 25.7111 10 25.3333C10 24.9555 10.128 24.6386 10.384 24.3826C10.6391 24.1275 10.9556 24 11.3333 24H14V21.3333C14 20.9555 14.1276 20.6386 14.3827 20.3826C14.6387 20.1275 14.9556 20 15.3333 20C15.7111 20 16.028 20.1275 16.284 20.3826C16.5391 20.6386 16.6667 20.9555 16.6667 21.3333V24H19.3333C19.7111 24 20.028 24.1275 20.284 24.3826C20.5391 24.6386 20.6667 24.9555 20.6667 25.3333C20.6667 25.7111 20.5391 26.0275 20.284 26.2826C20.028 26.5386 19.7111 26.6666 19.3333 26.6666H16.6667V29.3333C16.6667 29.7111 16.5391 30.0275 16.284 30.2826C16.028 30.5386 15.7111 30.6666 15.3333 30.6666ZM23.8333 33.3333C23.3667 33.3333 22.9667 33.1666 22.6333 32.8333C22.3 32.5 22.1333 32.1 22.1333 31.6333C22.1333 31.3222 22.2058 30.9888 22.3507 30.6333C22.4947 30.2777 22.6778 29.9888 22.9 29.7666L28.8 23.7333C29.5556 22.9777 30.0778 22.3333 30.3667 21.8C30.6556 21.2666 30.8 20.6666 30.8 20C30.8 19.3555 30.5502 18.772 30.0507 18.2493C29.5502 17.7275 28.8 17.4666 27.8 17.4666C27.2667 17.4666 26.8 17.5666 26.4 17.7666C26 17.9666 25.6556 18.2444 25.3667 18.6C25.0778 18.9555 24.7609 19.2 24.416 19.3333C24.072 19.4666 23.7333 19.4666 23.4 19.3333C23.0222 19.1777 22.7556 18.9111 22.6 18.5333C22.4444 18.1555 22.4667 17.8111 22.6667 17.5C23.1333 16.7222 23.8 16.0555 24.6667 15.5C25.5333 14.9444 26.6 14.6666 27.8667 14.6666C29.7111 14.6666 31.1502 15.1946 32.184 16.2506C33.2169 17.3057 33.7333 18.5555 33.7333 20C33.7333 21 33.5 21.9111 33.0333 22.7333C32.5667 23.5555 31.8444 24.4666 30.8667 25.4666L26 30.5333L26.0667 30.6666H32.6667C33.0444 30.6666 33.3609 30.7946 33.616 31.0506C33.872 31.3057 34 31.6222 34 32C34 32.3777 33.872 32.6942 33.616 32.9493C33.3609 33.2053 33.0444 33.3333 32.6667 33.3333H23.8333Z" fill="black"/>
</svg>
