<svg width="60" height="60" viewBox="0 0 60 60" fill="none" xmlns="http://www.w3.org/2000/svg">
<path fill-rule="evenodd" clip-rule="evenodd" d="M56.6038 30C56.6038 44.6929 44.6929 56.6038 30 56.6038C15.3071 56.6038 3.39623 44.6929 3.39623 30C3.39623 15.3071 15.3071 3.39623 30 3.39623C44.6929 3.39623 56.6038 15.3071 56.6038 30ZM60 30C60 46.5685 46.5685 60 30 60C13.4315 60 0 46.5685 0 30C0 13.4315 13.4315 0 30 0C46.5685 0 60 13.4315 60 30ZM40.1887 31.6981C41.1265 31.6981 41.8868 30.9378 41.8868 30C41.8868 29.0622 41.1265 28.3019 40.1887 28.3019L19.8113 28.3019C18.8735 28.3019 18.1132 29.0622 18.1132 30C18.1132 30.9378 18.8735 31.6981 19.8113 31.6981L40.1887 31.6981Z" fill="white"/>
</svg>
