<svg width="48" height="48" viewBox="0 0 48 48" fill="none" xmlns="http://www.w3.org/2000/svg">
<path fill-rule="evenodd" clip-rule="evenodd" d="M24 45.283C35.7543 45.283 45.283 35.7543 45.283 24C45.283 12.2457 35.7543 2.71698 24 2.71698C12.2457 2.71698 2.71698 12.2457 2.71698 24C2.71698 35.7543 12.2457 45.283 24 45.283ZM24 48C37.2548 48 48 37.2548 48 24C48 10.7452 37.2548 0 24 0C10.7452 0 0 10.7452 0 24C0 37.2548 10.7452 48 24 48Z" fill="black"/>
<path d="M15.3333 30.6667C14.9556 30.6667 14.6387 30.5387 14.3827 30.2827C14.1276 30.0276 14 29.7111 14 29.3333V26.6667H11.3333C10.9556 26.6667 10.6391 26.5387 10.384 26.2827C10.128 26.0276 10 25.7111 10 25.3333C10 24.9556 10.128 24.6387 10.384 24.3827C10.6391 24.1276 10.9556 24 11.3333 24H14V21.3333C14 20.9556 14.1276 20.6387 14.3827 20.3827C14.6387 20.1276 14.9556 20 15.3333 20C15.7111 20 16.028 20.1276 16.284 20.3827C16.5391 20.6387 16.6667 20.9556 16.6667 21.3333V24H19.3333C19.7111 24 20.028 24.1276 20.284 24.3827C20.5391 24.6387 20.6667 24.9556 20.6667 25.3333C20.6667 25.7111 20.5391 26.0276 20.284 26.2827C20.028 26.5387 19.7111 26.6667 19.3333 26.6667H16.6667V29.3333C16.6667 29.7111 16.5391 30.0276 16.284 30.2827C16.028 30.5387 15.7111 30.6667 15.3333 30.6667Z" fill="black"/>
<path d="M27.2722 33C26.0861 33 25.0522 32.7228 24.1705 32.1684C23.2876 31.6128 22.6003 30.84 22.1085 29.85C21.9638 29.52 21.9638 29.175 22.1085 28.815C22.2531 28.455 22.499 28.2 22.8462 28.05C23.1644 27.9 23.4901 27.9 23.8234 28.05C24.1555 28.2 24.4372 28.47 24.6686 28.86C24.9579 29.31 25.327 29.6622 25.776 29.9166C26.2238 30.1722 26.7515 30.3 27.359 30.3C28.14 30.3 28.8274 30.0678 29.421 29.6034C30.0134 29.1378 30.3097 28.47 30.3097 27.6C30.3097 26.64 29.9556 25.95 29.2474 25.53C28.5381 25.11 27.7929 24.9 27.0118 24.9H26.8817C26.5345 24.9 26.2383 24.7722 25.993 24.5166C25.7465 24.2622 25.6233 23.955 25.6233 23.595C25.6233 23.235 25.7465 22.9272 25.993 22.6716C26.2383 22.4172 26.5345 22.29 26.8817 22.29H26.925C27.6772 22.29 28.3281 22.1022 28.8777 21.7266C29.4274 21.3522 29.7022 20.73 29.7022 19.86C29.7022 19.08 29.4493 18.51 28.9437 18.15C28.4368 17.79 27.8508 17.61 27.1854 17.61C26.7804 17.61 26.3974 17.6922 26.0364 17.8566C25.6742 18.0222 25.3629 18.255 25.1026 18.555C24.8422 18.885 24.5604 19.11 24.2573 19.23C23.953 19.35 23.6561 19.335 23.3669 19.185C22.9908 19.035 22.7304 18.765 22.5858 18.375C22.4412 17.985 22.4701 17.625 22.6726 17.295C23.1644 16.545 23.8153 15.975 24.6252 15.585C25.4352 15.195 26.2886 15 27.1854 15C28.545 15 29.7531 15.3972 30.8095 16.1916C31.8649 16.9872 32.3925 18.15 32.3925 19.68C32.3925 20.58 32.2189 21.3222 31.8718 21.9066C31.5247 22.4922 30.975 23.01 30.2229 23.46V23.55C31.0907 23.91 31.7705 24.465 32.2623 25.215C32.7541 25.965 33 26.82 33 27.78C33 29.4 32.4284 30.675 31.2851 31.605C30.143 32.535 28.8054 33 27.2722 33Z" fill="black"/>
</svg>
