<svg width="60" height="60" viewBox="0 0 60 60" fill="none" xmlns="http://www.w3.org/2000/svg">
<path fill-rule="evenodd" clip-rule="evenodd" d="M30 56.6038C44.6929 56.6038 56.6038 44.6929 56.6038 30C56.6038 15.3071 44.6929 3.39623 30 3.39623C15.3071 3.39623 3.39623 15.3071 3.39623 30C3.39623 44.6929 15.3071 56.6038 30 56.6038ZM30 60C46.5685 60 60 46.5685 60 30C60 13.4315 46.5685 0 30 0C13.4315 0 0 13.4315 0 30C0 46.5685 13.4315 60 30 60ZM30 18.1132C30.9378 18.1132 31.6981 18.8735 31.6981 19.8113V28.3019H40.1887C41.1265 28.3019 41.8868 29.0622 41.8868 30C41.8868 30.9378 41.1265 31.6981 40.1887 31.6981H31.6981V40.1887C31.6981 41.1265 30.9378 41.8868 30 41.8868C29.0622 41.8868 28.3019 41.1265 28.3019 40.1887V31.6981H19.8113C18.8735 31.6981 18.1132 30.9378 18.1132 30C18.1132 29.0622 18.8735 28.3019 19.8113 28.3019H28.3019V19.8113C28.3019 18.8735 29.0622 18.1132 30 18.1132Z" fill="white"/>
</svg>
