<svg width="32" height="32" viewBox="0 0 32 32" fill="none" xmlns="http://www.w3.org/2000/svg">
<circle cx="16" cy="16" r="15" stroke="black" stroke-width="2"/>
<path d="M11.6475 21.1332C12.8964 22.2917 14.5688 23 16.4067 23C20.2727 23 23.4067 19.866 23.4067 16C23.4067 12.134 20.2727 9 16.4067 9C12.8802 9 9.96283 11.6077 9.4776 15" stroke="black"/>
<path d="M11.6475 21.1332C12.8964 22.2917 14.5688 23 16.4067 23C20.2727 23 23.4067 19.866 23.4067 16C23.4067 12.134 20.2727 9 16.4067 9C12.8802 9 9.96283 11.6077 9.4776 15" stroke="black" stroke-width="2" stroke-linecap="round"/>
<path d="M8 11.5141L8.92086 15.4067L12.8134 14.4858" stroke="black" stroke-width="2" stroke-linecap="round" stroke-linejoin="round"/>
</svg>
